<mxfile host="app.diagrams.net" modified="2021-04-15T12:12:47.552Z" agent="5.0 (Macintosh; Intel Mac OS X 11_2_3) AppleWebKit/537.36 (KHTML, like Gecko) Chrome/89.0.4389.114 Safari/537.36" etag="768fkcvZVYtfma5iZ74r" version="14.6.0" type="github">
  <diagram name="Page-1" id="e7e014a7-5840-1c2e-5031-d8a46d1fe8dd">
    <mxGraphModel dx="1426" dy="773" grid="1" gridSize="10" guides="1" tooltips="1" connect="1" arrows="1" fold="1" page="1" pageScale="1" pageWidth="1169" pageHeight="826" background="#ffffff" math="0" shadow="0">
      <root>
        <mxCell id="0" />
        <mxCell id="1" parent="0" />
        <mxCell id="mBOL9zXCFcZoV6gmE1oh-41" value="Recept" style="swimlane;fontStyle=1;align=center;verticalAlign=top;childLayout=stackLayout;horizontal=1;startSize=26;horizontalStack=0;resizeParent=1;resizeParentMax=0;resizeLast=0;collapsible=1;marginBottom=0;" vertex="1" parent="1">
          <mxGeometry x="80" y="120" width="200" height="244" as="geometry" />
        </mxCell>
        <mxCell id="mBOL9zXCFcZoV6gmE1oh-42" value="- afbeelding - file&#xa;- titel - string&#xa;- soortKeuken - string&#xa;- voorbereidingTijd - int + string&#xa;- kookTijd - int + string&#xa;- aantalCal - int + string&#xa;- totaalTijd - int + string&#xa;- ingredient - arrayList" style="text;strokeColor=none;fillColor=none;align=left;verticalAlign=top;spacingLeft=4;spacingRight=4;overflow=hidden;rotatable=0;points=[[0,0.5],[1,0.5]];portConstraint=eastwest;" vertex="1" parent="mBOL9zXCFcZoV6gmE1oh-41">
          <mxGeometry y="26" width="200" height="184" as="geometry" />
        </mxCell>
        <mxCell id="mBOL9zXCFcZoV6gmE1oh-43" value="" style="line;strokeWidth=1;fillColor=none;align=left;verticalAlign=middle;spacingTop=-1;spacingLeft=3;spacingRight=3;rotatable=0;labelPosition=right;points=[];portConstraint=eastwest;" vertex="1" parent="mBOL9zXCFcZoV6gmE1oh-41">
          <mxGeometry y="210" width="200" height="8" as="geometry" />
        </mxCell>
        <mxCell id="mBOL9zXCFcZoV6gmE1oh-44" value="+ method(type): type" style="text;strokeColor=none;fillColor=none;align=left;verticalAlign=top;spacingLeft=4;spacingRight=4;overflow=hidden;rotatable=0;points=[[0,0.5],[1,0.5]];portConstraint=eastwest;" vertex="1" parent="mBOL9zXCFcZoV6gmE1oh-41">
          <mxGeometry y="218" width="200" height="26" as="geometry" />
        </mxCell>
      </root>
    </mxGraphModel>
  </diagram>
</mxfile>
